<?xml version="1.0" encoding="UTF-8" standalone="no"?>
<svg
   xmlns:dc="http://purl.org/dc/elements/1.1/"
   xmlns:cc="http://creativecommons.org/ns#"
   xmlns:rdf="http://www.w3.org/1999/02/22-rdf-syntax-ns#"
   xmlns:svg="http://www.w3.org/2000/svg"
   xmlns="http://www.w3.org/2000/svg"
   xmlns:sodipodi="http://sodipodi.sourceforge.net/DTD/sodipodi-0.dtd"
   xmlns:inkscape="http://www.inkscape.org/namespaces/inkscape"
   width="45.869934mm"
   height="45.870251mm"
   viewBox="0 0 45.869934 45.870251"
   version="1.1"
   id="svg4139"
   inkscape:version="1.0.2-2 (e86c870879, 2021-01-15)"
   sodipodi:docname="price.svg">
  <defs
     id="defs4133" />
  <sodipodi:namedview
     id="base"
     pagecolor="#ffffff"
     bordercolor="#666666"
     borderopacity="1.0"
     inkscape:pageopacity="0.0"
     inkscape:pageshadow="2"
     inkscape:zoom="0.35"
     inkscape:cx="0.96906398"
     inkscape:cy="192.39823"
     inkscape:document-units="mm"
     inkscape:current-layer="layer1"
     inkscape:document-rotation="0"
     showgrid="false"
     inkscape:window-width="1500"
     inkscape:window-height="1040"
     inkscape:window-x="130"
     inkscape:window-y="0"
     inkscape:window-maximized="0"
     fit-margin-top="0"
     fit-margin-left="0"
     fit-margin-right="0"
     fit-margin-bottom="0" />
  <metadata
     id="metadata4136">
    <rdf:RDF>
      <cc:Work
         rdf:about="">
        <dc:format>image/svg+xml</dc:format>
        <dc:type
           rdf:resource="http://purl.org/dc/dcmitype/StillImage" />
        <dc:title></dc:title>
      </cc:Work>
    </rdf:RDF>
  </metadata>
  <g
     inkscape:label="Слой 1"
     inkscape:groupmode="layer"
     id="layer1"
     transform="translate(-105.57694,-97.261303)">
    <g
       id="g4057"
       transform="matrix(0.03527778,0,0,-0.03527778,-27.433701,159.45744)">
      <path
         id="path1392"
         style="fill:#d84315;fill-opacity:1;fill-rule:nonzero;stroke:none;stroke-width:0.992126;stroke-miterlimit:4;stroke-dasharray:none"
         d="M 5070.63,462.781 H 3770.38 V 1763.04 H 5070.63 V 462.781" />
      <path
         id="path1424"
         style="fill:#ffffff;fill-opacity:1;fill-rule:nonzero;stroke:none"
         d="m 3847.78,1664.53 c -6.76,0 -12.24,-5.48 -12.24,-12.24 0,-6.76 5.48,-12.24 12.24,-12.24 6.76,0 12.24,5.48 12.24,12.24 0,6.76 -5.48,12.24 -12.24,12.24" />
      <path
         id="path1426"
         style="fill:#ffffff;fill-opacity:1;fill-rule:nonzero;stroke:none"
         d="m 3885.85,1664.53 c -6.75,0 -12.23,-5.48 -12.23,-12.24 0,-6.76 5.48,-12.24 12.23,-12.24 6.76,0 12.24,5.48 12.24,12.24 0,6.76 -5.48,12.24 -12.24,12.24" />
      <path
         id="path1428"
         style="fill:#ffffff;fill-opacity:1;fill-rule:nonzero;stroke:none"
         d="m 3923.93,1664.53 c -6.76,0 -12.24,-5.48 -12.24,-12.24 0,-6.76 5.48,-12.24 12.24,-12.24 6.76,0 12.24,5.48 12.24,12.24 0,6.76 -5.48,12.24 -12.24,12.24" />
      <path
         id="path1430"
         style="fill:#ffffff;fill-opacity:1;fill-rule:nonzero;stroke:none"
         d="m 3962,1664.53 c -6.76,0 -12.23,-5.48 -12.23,-12.24 0,-6.76 5.47,-12.24 12.23,-12.24 6.76,0 12.24,5.48 12.24,12.24 0,6.76 -5.48,12.24 -12.24,12.24" />
      <path
         id="path1432"
         style="fill:#ffffff;fill-opacity:1;fill-rule:nonzero;stroke:none"
         d="m 4000.08,1664.53 c -6.76,0 -12.24,-5.48 -12.24,-12.24 0,-6.76 5.48,-12.24 12.24,-12.24 6.76,0 12.24,5.48 12.24,12.24 0,6.76 -5.48,12.24 -12.24,12.24" />
      <path
         id="path1434"
         style="fill:#ffffff;fill-opacity:1;fill-rule:nonzero;stroke:none"
         d="m 4038.15,1664.53 c -6.76,0 -12.24,-5.48 -12.24,-12.24 0,-6.76 5.48,-12.24 12.24,-12.24 6.76,0 12.24,5.48 12.24,12.24 0,6.76 -5.48,12.24 -12.24,12.24" />
      <path
         id="path1436"
         style="fill:#ffffff;fill-opacity:1;fill-rule:nonzero;stroke:none"
         d="m 4076.23,1664.53 c -6.76,0 -12.24,-5.48 -12.24,-12.24 0,-6.76 5.48,-12.24 12.24,-12.24 6.75,0 12.23,5.48 12.23,12.24 0,6.76 -5.48,12.24 -12.23,12.24" />
      <path
         id="path1438"
         style="fill:#ffffff;fill-opacity:1;fill-rule:nonzero;stroke:none"
         d="m 4114.3,1664.53 c -6.76,0 -12.24,-5.48 -12.24,-12.24 0,-6.76 5.48,-12.24 12.24,-12.24 6.76,0 12.24,5.48 12.24,12.24 0,6.76 -5.48,12.24 -12.24,12.24" />
      <path
         id="path1440"
         style="fill:#ffffff;fill-opacity:1;fill-rule:nonzero;stroke:none"
         d="m 4152.37,1664.53 c -6.75,0 -12.23,-5.48 -12.23,-12.24 0,-6.76 5.48,-12.24 12.23,-12.24 6.76,0 12.24,5.48 12.24,12.24 0,6.76 -5.48,12.24 -12.24,12.24" />
      <path
         id="path1442"
         style="fill:#ffffff;fill-opacity:1;fill-rule:nonzero;stroke:none"
         d="m 4190.45,1664.53 c -6.76,0 -12.24,-5.48 -12.24,-12.24 0,-6.76 5.48,-12.24 12.24,-12.24 6.76,0 12.24,5.48 12.24,12.24 0,6.76 -5.48,12.24 -12.24,12.24" />
      <path
         id="path1444"
         style="fill:#ffffff;fill-opacity:1;fill-rule:nonzero;stroke:none"
         d="m 4228.52,1664.53 c -6.76,0 -12.23,-5.48 -12.23,-12.24 0,-6.76 5.47,-12.24 12.23,-12.24 6.76,0 12.24,5.48 12.24,12.24 0,6.76 -5.48,12.24 -12.24,12.24" />
      <path
         id="path1446"
         style="fill:#ffffff;fill-opacity:1;fill-rule:nonzero;stroke:none"
         d="m 4266.6,1664.53 c -6.76,0 -12.24,-5.48 -12.24,-12.24 0,-6.76 5.48,-12.24 12.24,-12.24 6.76,0 12.24,5.48 12.24,12.24 0,6.76 -5.48,12.24 -12.24,12.24" />
      <path
         id="path1448"
         style="fill:#ffffff;fill-opacity:1;fill-rule:nonzero;stroke:none"
         d="m 4304.67,1664.53 c -6.76,0 -12.24,-5.48 -12.24,-12.24 0,-6.76 5.48,-12.24 12.24,-12.24 6.76,0 12.24,5.48 12.24,12.24 0,6.76 -5.48,12.24 -12.24,12.24" />
      <path
         id="path1450"
         style="fill:#ffffff;fill-opacity:1;fill-rule:nonzero;stroke:none"
         d="m 4342.75,1664.53 c -6.76,0 -12.24,-5.48 -12.24,-12.24 0,-6.76 5.48,-12.24 12.24,-12.24 6.76,0 12.23,5.48 12.23,12.24 0,6.76 -5.47,12.24 -12.23,12.24" />
      <path
         id="path1452"
         style="fill:#ffffff;fill-opacity:1;fill-rule:nonzero;stroke:none"
         d="m 4380.82,1664.53 c -6.76,0 -12.24,-5.48 -12.24,-12.24 0,-6.76 5.48,-12.24 12.24,-12.24 6.76,0 12.24,5.48 12.24,12.24 0,6.76 -5.48,12.24 -12.24,12.24" />
      <path
         id="path1454"
         style="fill:#ffffff;fill-opacity:1;fill-rule:nonzero;stroke:none"
         d="m 4418.89,1664.53 c -6.75,0 -12.23,-5.48 -12.23,-12.24 0,-6.76 5.48,-12.24 12.23,-12.24 6.76,0 12.24,5.48 12.24,12.24 0,6.76 -5.48,12.24 -12.24,12.24" />
      <path
         id="path1456"
         style="fill:#ffffff;fill-opacity:1;fill-rule:nonzero;stroke:none"
         d="m 4456.97,1664.53 c -6.76,0 -12.24,-5.48 -12.24,-12.24 0,-6.76 5.48,-12.24 12.24,-12.24 6.76,0 12.24,5.48 12.24,12.24 0,6.76 -5.48,12.24 -12.24,12.24" />
      <path
         id="path1458"
         style="fill:#ffffff;fill-opacity:1;fill-rule:nonzero;stroke:none"
         d="m 4495.04,1664.53 c -6.76,0 -12.23,-5.48 -12.23,-12.24 0,-6.76 5.47,-12.24 12.23,-12.24 6.76,0 12.24,5.48 12.24,12.24 0,6.76 -5.48,12.24 -12.24,12.24" />
      <path
         id="path1460"
         style="fill:#ffffff;fill-opacity:1;fill-rule:nonzero;stroke:none"
         d="m 4533.12,1664.53 c -6.76,0 -12.24,-5.48 -12.24,-12.24 0,-6.76 5.48,-12.24 12.24,-12.24 6.76,0 12.24,5.48 12.24,12.24 0,6.76 -5.48,12.24 -12.24,12.24" />
      <path
         id="path1462"
         style="fill:#ffffff;fill-opacity:1;fill-rule:nonzero;stroke:none"
         d="m 4571.19,1664.53 c -6.76,0 -12.24,-5.48 -12.24,-12.24 0,-6.76 5.48,-12.24 12.24,-12.24 6.76,0 12.24,5.48 12.24,12.24 0,6.76 -5.48,12.24 -12.24,12.24" />
      <path
         id="path1464"
         style="fill:#ffffff;fill-opacity:1;fill-rule:nonzero;stroke:none"
         d="m 4609.53,1664.53 c -6.75,0 -12.23,-5.48 -12.23,-12.24 0,-6.76 5.48,-12.24 12.23,-12.24 6.76,0 12.24,5.48 12.24,12.24 0,6.76 -5.48,12.24 -12.24,12.24" />
      <path
         id="path1466"
         style="fill:#ffffff;fill-opacity:1;fill-rule:nonzero;stroke:none"
         d="m 4647.88,1664.53 c -6.76,0 -12.24,-5.48 -12.24,-12.24 0,-6.76 5.48,-12.24 12.24,-12.24 6.76,0 12.24,5.48 12.24,12.24 0,6.76 -5.48,12.24 -12.24,12.24" />
      <path
         id="path1468"
         style="fill:#ffffff;fill-opacity:1;fill-rule:nonzero;stroke:none"
         d="m 4686.22,1664.53 c -6.76,0 -12.24,-5.48 -12.24,-12.24 0,-6.76 5.48,-12.24 12.24,-12.24 6.76,0 12.24,5.48 12.24,12.24 0,6.76 -5.48,12.24 -12.24,12.24" />
      <path
         id="path1470"
         style="fill:#ffffff;fill-opacity:1;fill-rule:nonzero;stroke:none"
         d="m 4724.56,1664.53 c -6.76,0 -12.24,-5.48 -12.24,-12.24 0,-6.76 5.48,-12.24 12.24,-12.24 6.76,0 12.24,5.48 12.24,12.24 0,6.76 -5.48,12.24 -12.24,12.24" />
      <path
         id="path1472"
         style="fill:#ffffff;fill-opacity:1;fill-rule:nonzero;stroke:none"
         d="m 4762.9,1664.53 c -6.75,0 -12.23,-5.48 -12.23,-12.24 0,-6.76 5.48,-12.24 12.23,-12.24 6.76,0 12.24,5.48 12.24,12.24 0,6.76 -5.48,12.24 -12.24,12.24" />
      <path
         id="path1474"
         style="fill:#ffffff;fill-opacity:1;fill-rule:nonzero;stroke:none"
         d="m 4801.25,1664.53 c -6.76,0 -12.24,-5.48 -12.24,-12.24 0,-6.76 5.48,-12.24 12.24,-12.24 6.76,0 12.24,5.48 12.24,12.24 0,6.76 -5.48,12.24 -12.24,12.24" />
      <path
         id="path1476"
         style="fill:#ffffff;fill-opacity:1;fill-rule:nonzero;stroke:none"
         d="m 4839.59,1664.53 c -6.76,0 -12.24,-5.48 -12.24,-12.24 0,-6.76 5.48,-12.24 12.24,-12.24 6.76,0 12.24,5.48 12.24,12.24 0,6.76 -5.48,12.24 -12.24,12.24" />
      <path
         id="path1478"
         style="fill:#ffffff;fill-opacity:1;fill-rule:nonzero;stroke:none"
         d="m 4877.93,1664.53 c -6.76,0 -12.24,-5.48 -12.24,-12.24 0,-6.76 5.48,-12.24 12.24,-12.24 6.76,0 12.24,5.48 12.24,12.24 0,6.76 -5.48,12.24 -12.24,12.24" />
      <path
         id="path1480"
         style="fill:#ffffff;fill-opacity:1;fill-rule:nonzero;stroke:none"
         d="m 4916.27,1664.53 c -6.75,0 -12.23,-5.48 -12.23,-12.24 0,-6.76 5.48,-12.24 12.23,-12.24 6.76,0 12.24,5.48 12.24,12.24 0,6.76 -5.48,12.24 -12.24,12.24" />
      <path
         id="path1482"
         style="fill:#ffffff;fill-opacity:1;fill-rule:nonzero;stroke:none"
         d="m 4954.62,1664.53 c -6.76,0 -12.24,-5.48 -12.24,-12.24 0,-6.76 5.48,-12.24 12.24,-12.24 6.76,0 12.24,5.48 12.24,12.24 0,6.76 -5.48,12.24 -12.24,12.24" />
      <path
         id="path1484"
         style="fill:#ffffff;fill-opacity:1;fill-rule:nonzero;stroke:none"
         d="m 4992.96,1664.53 c -6.76,0 -12.24,-5.48 -12.24,-12.24 0,-6.76 5.48,-12.24 12.24,-12.24 6.76,0 12.24,5.48 12.24,12.24 0,6.76 -5.48,12.24 -12.24,12.24" />
      <path
         id="path1486"
         style="fill:#ffffff;fill-opacity:1;fill-rule:nonzero;stroke:none"
         d="m 3847.78,577.941 c -6.76,0 -12.24,-5.48 -12.24,-12.242 0,-6.75 5.48,-12.23 12.24,-12.23 6.76,0 12.24,5.48 12.24,12.23 0,6.762 -5.48,12.242 -12.24,12.242" />
      <path
         id="path1488"
         style="fill:#ffffff;fill-opacity:1;fill-rule:nonzero;stroke:none"
         d="m 3885.85,577.941 c -6.75,0 -12.23,-5.48 -12.23,-12.242 0,-6.75 5.48,-12.23 12.23,-12.23 6.76,0 12.24,5.48 12.24,12.23 0,6.762 -5.48,12.242 -12.24,12.242" />
      <path
         id="path1490"
         style="fill:#ffffff;fill-opacity:1;fill-rule:nonzero;stroke:none"
         d="m 3923.93,577.941 c -6.76,0 -12.24,-5.48 -12.24,-12.242 0,-6.75 5.48,-12.23 12.24,-12.23 6.76,0 12.24,5.48 12.24,12.23 0,6.762 -5.48,12.242 -12.24,12.242" />
      <path
         id="path1492"
         style="fill:#ffffff;fill-opacity:1;fill-rule:nonzero;stroke:none"
         d="m 3962,577.941 c -6.76,0 -12.23,-5.48 -12.23,-12.242 0,-6.75 5.47,-12.23 12.23,-12.23 6.76,0 12.24,5.48 12.24,12.23 0,6.762 -5.48,12.242 -12.24,12.242" />
      <path
         id="path1494"
         style="fill:#ffffff;fill-opacity:1;fill-rule:nonzero;stroke:none"
         d="m 4000.08,577.941 c -6.76,0 -12.24,-5.48 -12.24,-12.242 0,-6.75 5.48,-12.23 12.24,-12.23 6.76,0 12.24,5.48 12.24,12.23 0,6.762 -5.48,12.242 -12.24,12.242" />
      <path
         id="path1496"
         style="fill:#ffffff;fill-opacity:1;fill-rule:nonzero;stroke:none"
         d="m 4038.15,577.941 c -6.76,0 -12.24,-5.48 -12.24,-12.242 0,-6.75 5.48,-12.23 12.24,-12.23 6.76,0 12.24,5.48 12.24,12.23 0,6.762 -5.48,12.242 -12.24,12.242" />
      <path
         id="path1498"
         style="fill:#ffffff;fill-opacity:1;fill-rule:nonzero;stroke:none"
         d="m 4076.23,577.941 c -6.76,0 -12.24,-5.48 -12.24,-12.242 0,-6.75 5.48,-12.23 12.24,-12.23 6.75,0 12.23,5.48 12.23,12.23 0,6.762 -5.48,12.242 -12.23,12.242" />
      <path
         id="path1500"
         style="fill:#ffffff;fill-opacity:1;fill-rule:nonzero;stroke:none"
         d="m 4114.3,577.941 c -6.76,0 -12.24,-5.48 -12.24,-12.242 0,-6.75 5.48,-12.23 12.24,-12.23 6.76,0 12.24,5.48 12.24,12.23 0,6.762 -5.48,12.242 -12.24,12.242" />
      <path
         id="path1502"
         style="fill:#ffffff;fill-opacity:1;fill-rule:nonzero;stroke:none"
         d="m 4152.37,577.941 c -6.75,0 -12.23,-5.48 -12.23,-12.242 0,-6.75 5.48,-12.23 12.23,-12.23 6.76,0 12.24,5.48 12.24,12.23 0,6.762 -5.48,12.242 -12.24,12.242" />
      <path
         id="path1504"
         style="fill:#ffffff;fill-opacity:1;fill-rule:nonzero;stroke:none"
         d="m 4190.45,577.941 c -6.76,0 -12.24,-5.48 -12.24,-12.242 0,-6.75 5.48,-12.23 12.24,-12.23 6.76,0 12.24,5.48 12.24,12.23 0,6.762 -5.48,12.242 -12.24,12.242" />
      <path
         id="path1506"
         style="fill:#ffffff;fill-opacity:1;fill-rule:nonzero;stroke:none"
         d="m 4228.52,577.941 c -6.76,0 -12.23,-5.48 -12.23,-12.242 0,-6.75 5.47,-12.23 12.23,-12.23 6.76,0 12.24,5.48 12.24,12.23 0,6.762 -5.48,12.242 -12.24,12.242" />
      <path
         id="path1508"
         style="fill:#ffffff;fill-opacity:1;fill-rule:nonzero;stroke:none"
         d="m 4266.6,577.941 c -6.76,0 -12.24,-5.48 -12.24,-12.242 0,-6.75 5.48,-12.23 12.24,-12.23 6.76,0 12.24,5.48 12.24,12.23 0,6.762 -5.48,12.242 -12.24,12.242" />
      <path
         id="path1510"
         style="fill:#ffffff;fill-opacity:1;fill-rule:nonzero;stroke:none"
         d="m 4304.67,577.941 c -6.76,0 -12.24,-5.48 -12.24,-12.242 0,-6.75 5.48,-12.23 12.24,-12.23 6.76,0 12.24,5.48 12.24,12.23 0,6.762 -5.48,12.242 -12.24,12.242" />
      <path
         id="path1512"
         style="fill:#ffffff;fill-opacity:1;fill-rule:nonzero;stroke:none"
         d="m 4342.75,577.941 c -6.76,0 -12.24,-5.48 -12.24,-12.242 0,-6.75 5.48,-12.23 12.24,-12.23 6.76,0 12.23,5.48 12.23,12.23 0,6.762 -5.47,12.242 -12.23,12.242" />
      <path
         id="path1514"
         style="fill:#ffffff;fill-opacity:1;fill-rule:nonzero;stroke:none"
         d="m 4380.82,577.941 c -6.76,0 -12.24,-5.48 -12.24,-12.242 0,-6.75 5.48,-12.23 12.24,-12.23 6.76,0 12.24,5.48 12.24,12.23 0,6.762 -5.48,12.242 -12.24,12.242" />
      <path
         id="path1516"
         style="fill:#ffffff;fill-opacity:1;fill-rule:nonzero;stroke:none"
         d="m 4418.89,577.941 c -6.75,0 -12.23,-5.48 -12.23,-12.242 0,-6.75 5.48,-12.23 12.23,-12.23 6.76,0 12.24,5.48 12.24,12.23 0,6.762 -5.48,12.242 -12.24,12.242" />
      <path
         id="path1518"
         style="fill:#ffffff;fill-opacity:1;fill-rule:nonzero;stroke:none"
         d="m 4456.97,577.941 c -6.76,0 -12.24,-5.48 -12.24,-12.242 0,-6.75 5.48,-12.23 12.24,-12.23 6.76,0 12.24,5.48 12.24,12.23 0,6.762 -5.48,12.242 -12.24,12.242" />
      <path
         id="path1520"
         style="fill:#ffffff;fill-opacity:1;fill-rule:nonzero;stroke:none"
         d="m 4495.04,577.941 c -6.76,0 -12.23,-5.48 -12.23,-12.242 0,-6.75 5.47,-12.23 12.23,-12.23 6.76,0 12.24,5.48 12.24,12.23 0,6.762 -5.48,12.242 -12.24,12.242" />
      <path
         id="path1522"
         style="fill:#ffffff;fill-opacity:1;fill-rule:nonzero;stroke:none"
         d="m 4533.12,577.941 c -6.76,0 -12.24,-5.48 -12.24,-12.242 0,-6.75 5.48,-12.23 12.24,-12.23 6.76,0 12.24,5.48 12.24,12.23 0,6.762 -5.48,12.242 -12.24,12.242" />
      <path
         id="path1524"
         style="fill:#ffffff;fill-opacity:1;fill-rule:nonzero;stroke:none"
         d="m 4571.19,577.941 c -6.76,0 -12.24,-5.48 -12.24,-12.242 0,-6.75 5.48,-12.23 12.24,-12.23 6.76,0 12.24,5.48 12.24,12.23 0,6.762 -5.48,12.242 -12.24,12.242" />
      <path
         id="path1526"
         style="fill:#ffffff;fill-opacity:1;fill-rule:nonzero;stroke:none"
         d="m 4609.53,577.941 c -6.75,0 -12.23,-5.48 -12.23,-12.242 0,-6.75 5.48,-12.23 12.23,-12.23 6.76,0 12.24,5.48 12.24,12.23 0,6.762 -5.48,12.242 -12.24,12.242" />
      <path
         id="path1528"
         style="fill:#ffffff;fill-opacity:1;fill-rule:nonzero;stroke:none"
         d="m 4647.88,577.941 c -6.76,0 -12.24,-5.48 -12.24,-12.242 0,-6.75 5.48,-12.23 12.24,-12.23 6.76,0 12.24,5.48 12.24,12.23 0,6.762 -5.48,12.242 -12.24,12.242" />
      <path
         id="path1530"
         style="fill:#ffffff;fill-opacity:1;fill-rule:nonzero;stroke:none"
         d="m 4686.22,577.941 c -6.76,0 -12.24,-5.48 -12.24,-12.242 0,-6.75 5.48,-12.23 12.24,-12.23 6.76,0 12.24,5.48 12.24,12.23 0,6.762 -5.48,12.242 -12.24,12.242" />
      <path
         id="path1532"
         style="fill:#ffffff;fill-opacity:1;fill-rule:nonzero;stroke:none"
         d="m 4724.56,577.941 c -6.76,0 -12.24,-5.48 -12.24,-12.242 0,-6.75 5.48,-12.23 12.24,-12.23 6.76,0 12.24,5.48 12.24,12.23 0,6.762 -5.48,12.242 -12.24,12.242" />
      <path
         id="path1534"
         style="fill:#ffffff;fill-opacity:1;fill-rule:nonzero;stroke:none"
         d="m 4762.9,577.941 c -6.75,0 -12.23,-5.48 -12.23,-12.242 0,-6.75 5.48,-12.23 12.23,-12.23 6.76,0 12.24,5.48 12.24,12.23 0,6.762 -5.48,12.242 -12.24,12.242" />
      <path
         id="path1536"
         style="fill:#ffffff;fill-opacity:1;fill-rule:nonzero;stroke:none"
         d="m 4801.25,577.941 c -6.76,0 -12.24,-5.48 -12.24,-12.242 0,-6.75 5.48,-12.23 12.24,-12.23 6.76,0 12.24,5.48 12.24,12.23 0,6.762 -5.48,12.242 -12.24,12.242" />
      <path
         id="path1538"
         style="fill:#ffffff;fill-opacity:1;fill-rule:nonzero;stroke:none"
         d="m 4839.59,577.941 c -6.76,0 -12.24,-5.48 -12.24,-12.242 0,-6.75 5.48,-12.23 12.24,-12.23 6.76,0 12.24,5.48 12.24,12.23 0,6.762 -5.48,12.242 -12.24,12.242" />
      <path
         id="path1540"
         style="fill:#ffffff;fill-opacity:1;fill-rule:nonzero;stroke:none"
         d="m 4877.93,577.941 c -6.76,0 -12.24,-5.48 -12.24,-12.242 0,-6.75 5.48,-12.23 12.24,-12.23 6.76,0 12.24,5.48 12.24,12.23 0,6.762 -5.48,12.242 -12.24,12.242" />
      <path
         id="path1542"
         style="fill:#ffffff;fill-opacity:1;fill-rule:nonzero;stroke:none"
         d="m 4916.27,577.941 c -6.75,0 -12.23,-5.48 -12.23,-12.242 0,-6.75 5.48,-12.23 12.23,-12.23 6.76,0 12.24,5.48 12.24,12.23 0,6.762 -5.48,12.242 -12.24,12.242" />
      <path
         id="path1544"
         style="fill:#ffffff;fill-opacity:1;fill-rule:nonzero;stroke:none"
         d="m 4954.62,577.941 c -6.76,0 -12.24,-5.48 -12.24,-12.242 0,-6.75 5.48,-12.23 12.24,-12.23 6.76,0 12.24,5.48 12.24,12.23 0,6.762 -5.48,12.242 -12.24,12.242" />
      <path
         id="path1546"
         style="fill:#ffffff;fill-opacity:1;fill-rule:nonzero;stroke:none"
         d="m 4992.96,577.941 c -6.76,0 -12.24,-5.48 -12.24,-12.242 0,-6.75 5.48,-12.23 12.24,-12.23 6.76,0 12.24,5.48 12.24,12.23 0,6.762 -5.48,12.242 -12.24,12.242" />
    </g>
  </g>
</svg>
